<svg width="267" height="42" fill="none" xmlns="http://www.w3.org/2000/svg"><path d="m20 29.12-3.318 6.858a4.425 4.425 0 0 1-1.85 1.944l-.09.049c-3.02 1.583-6.744-.574-6.742-3.96l.003-7.23M29 25.29l1.064.085 4.988.466a4.631 4.631 0 0 0 2.666-.551c3.038-1.677 3.045-5.95.005-7.69L31 13.755M8.009 16l.003-6.21c0-.32.024-.64.072-.957.587-3.56 4.727-5.476 8.008-3.601l5.1 2.916" stroke="#000" style="stroke:#000;stroke-opacity:1" stroke-width="4"/><path d="m26.755 5.139-22.32 12.74c-2.32 1.323-3.12 4.27-1.796 6.555l.09.15c1.369 2.206 4.256 2.934 6.52 1.642l5.58-3.185a1.614 1.614 0 0 1 2.144.508l.047.075 7.22 12.462c1.332 2.3 4.284 3.091 6.576 1.784l.152-.09a4.798 4.798 0 0 0 1.653-6.5l-7.22-12.461a1.564 1.564 0 0 1 .52-2.107l.068-.04 5.58-3.185a4.799 4.799 0 0 0 1.784-6.577c-1.333-2.3-4.285-3.091-6.598-1.771Z" stroke="#B81430" style="stroke:color(display-p3 .72 .08 .1867);stroke-opacity:1" stroke-width="4"/><path d="m20 29.12-3.318 6.858a4.425 4.425 0 0 1-1.85 1.944l-.09.049c-3.02 1.583-6.744-.574-6.742-3.96l.003-7.23M29 25.29l1.064.085 4.988.466a4.631 4.631 0 0 0 2.666-.551c3.038-1.677 3.045-5.95.005-7.69L31 13.755M8.009 16l.003-6.21c0-.32.024-.64.072-.957.587-3.56 4.727-5.476 8.008-3.601l5.1 2.916" stroke="#5C6370" style="stroke:color(display-p3 .36 .3867 .44);stroke-opacity:1" stroke-width="4"/><path d="m26.755 5.139-22.32 12.74c-2.32 1.323-3.12 4.27-1.796 6.555l.09.15c1.369 2.206 4.256 2.934 6.52 1.642l5.58-3.185a1.614 1.614 0 0 1 2.144.508l.047.075 7.22 12.462c1.332 2.3 4.284 3.091 6.576 1.784l.152-.09a4.798 4.798 0 0 0 1.653-6.5l-7.22-12.461a1.564 1.564 0 0 1 .52-2.107l.068-.04 5.58-3.185a4.799 4.799 0 0 0 1.784-6.577c-1.333-2.3-4.285-3.091-6.598-1.771Z" stroke="#000" style="stroke:#000;stroke-opacity:1" stroke-width="4"/><path d="M54.88 38v-7.273h.881v3.239h3.878v-3.239h.88V38h-.88v-3.253h-3.878V38h-.88Zm9.376.114c-.525 0-.979-.116-1.36-.348a2.336 2.336 0 0 1-.877-.98c-.203-.422-.305-.912-.305-1.47 0-.56.102-1.052.305-1.478a2.41 2.41 0 0 1 .86-1.001c.369-.242.8-.363 1.292-.363.284 0 .565.048.842.143.277.094.529.248.756.461.227.21.408.49.543.838.135.348.203.777.203 1.286v.355H62.31v-.725h3.353c0-.307-.062-.582-.185-.824a1.39 1.39 0 0 0-.519-.571 1.452 1.452 0 0 0-.788-.21c-.334 0-.623.083-.866.249a1.634 1.634 0 0 0-.558.64c-.13.262-.195.544-.195.844v.483c0 .412.07.761.213 1.048.144.284.344.5.6.65.256.146.553.22.891.22.22 0 .42-.031.597-.092a1.28 1.28 0 0 0 .465-.285c.13-.128.23-.286.302-.476l.81.228a1.794 1.794 0 0 1-.43.724c-.201.206-.45.367-.746.483-.296.114-.628.17-.998.17Zm4.172-7.387V38h-.838v-7.273h.838Zm1.335 9.318v-7.5h.81v.867h.099a7.52 7.52 0 0 1 .255-.362 1.5 1.5 0 0 1 .476-.398c.209-.118.49-.178.846-.178.459 0 .864.115 1.214.345.35.23.624.555.82.976.197.422.295.919.295 1.492 0 .578-.098 1.078-.295 1.502a2.326 2.326 0 0 1-.816.98c-.348.23-.75.345-1.204.345-.35 0-.631-.058-.842-.174a1.56 1.56 0 0 1-.486-.402 5.407 5.407 0 0 1-.263-.376H70.6v2.883h-.838Zm.824-4.772c0 .412.06.775.18 1.09.121.312.298.557.53.735.232.175.516.263.852.263.35 0 .643-.092.877-.277.237-.187.415-.438.533-.753.12-.317.181-.67.181-1.058 0-.384-.06-.73-.177-1.037a1.602 1.602 0 0 0-.53-.735c-.234-.183-.529-.274-.884-.274-.34 0-.627.087-.86.26-.231.17-.407.41-.525.717a2.948 2.948 0 0 0-.177 1.069ZM75.657 38v-5.455h.838V38h-.839Zm.426-6.364a.596.596 0 0 1-.423-.166.536.536 0 0 1-.174-.402c0-.156.058-.29.174-.401a.596.596 0 0 1 .423-.167c.163 0 .303.056.419.167a.531.531 0 0 1 .177.401c0 .156-.059.29-.177.401a.584.584 0 0 1-.42.167Zm2.585 3.083V38h-.839v-5.455h.81v.853h.071c.128-.277.322-.5.583-.668.26-.17.596-.256 1.008-.256.37 0 .693.076.97.228.277.149.492.376.646.681.154.304.23.687.23 1.151V38h-.837v-3.41c0-.428-.112-.761-.334-1-.223-.242-.528-.363-.916-.363-.268 0-.507.058-.718.174a1.246 1.246 0 0 0-.493.508c-.121.223-.181.492-.181.81Zm7.013 5.44c-.405 0-.753-.052-1.044-.156a2.216 2.216 0 0 1-.728-.405 2.217 2.217 0 0 1-.458-.533l.667-.468c.076.099.172.213.288.34.116.13.275.243.476.338.203.097.47.145.799.145.44 0 .804-.106 1.09-.32.287-.212.43-.546.43-1v-1.108h-.071c-.062.099-.15.222-.263.369a1.49 1.49 0 0 1-.483.387c-.208.111-.49.167-.845.167-.44 0-.836-.104-1.186-.313a2.193 2.193 0 0 1-.828-.909c-.2-.398-.302-.88-.302-1.449 0-.558.099-1.045.295-1.46.197-.416.47-.738.82-.965.35-.23.756-.345 1.215-.345.355 0 .637.06.845.178.21.116.372.249.483.398.114.147.201.267.263.362h.085v-.867h.81v5.611c0 .469-.107.85-.32 1.144a1.82 1.82 0 0 1-.852.65c-.355.14-.75.21-1.186.21Zm-.029-2.997c.337 0 .62-.077.853-.23.232-.155.408-.376.529-.665.12-.289.18-.634.18-1.037 0-.393-.058-.74-.177-1.04a1.561 1.561 0 0 0-.525-.707c-.232-.17-.519-.256-.86-.256-.355 0-.65.09-.887.27-.235.18-.411.422-.53.725a2.8 2.8 0 0 0-.174 1.008c0 .379.06.714.178 1.005.12.289.298.516.533.682.236.163.53.245.88.245Zm8.55.952c-.512 0-.952-.121-1.322-.363a2.361 2.361 0 0 1-.852-.997c-.199-.424-.298-.908-.298-1.453 0-.554.102-1.043.305-1.467.206-.426.493-.758.86-.997.369-.242.8-.363 1.292-.363.384 0 .73.072 1.037.214.308.142.56.34.756.596.197.256.319.554.366.895h-.838a1.299 1.299 0 0 0-.426-.66c-.218-.195-.511-.292-.88-.292-.327 0-.614.086-.86.256a1.665 1.665 0 0 0-.572.714 2.645 2.645 0 0 0-.202 1.076c0 .421.066.788.199 1.1.135.313.324.556.568.729.246.172.535.259.866.259.218 0 .416-.038.593-.114a1.224 1.224 0 0 0 .714-.838h.838a1.94 1.94 0 0 1-1.086 1.48c-.303.15-.656.225-1.059.225Zm5.385 0c-.492 0-.924-.118-1.296-.352a2.389 2.389 0 0 1-.866-.984c-.206-.421-.31-.913-.31-1.477 0-.568.104-1.064.31-1.488.208-.424.497-.753.866-.987.372-.234.804-.352 1.296-.352.493 0 .924.118 1.293.352.372.234.66.563.866.987.209.424.313.92.313 1.488 0 .564-.104 1.056-.313 1.477-.206.422-.494.75-.866.984-.369.234-.8.352-1.293.352Zm0-.753c.374 0 .682-.096.924-.288a1.7 1.7 0 0 0 .536-.756c.116-.313.174-.651.174-1.016 0-.364-.058-.704-.174-1.019a1.72 1.72 0 0 0-.536-.763c-.242-.195-.55-.292-.924-.292s-.682.097-.923.292c-.242.194-.42.448-.536.763a2.925 2.925 0 0 0-.174 1.02c0 .364.058.702.174 1.015.116.312.294.564.536.756.241.192.55.288.923.288Zm3.551.639v-5.455h.81v.853h.071c.113-.292.297-.518.55-.679.254-.163.558-.245.913-.245.36 0 .659.082.898.245.242.161.43.387.565.679h.057c.139-.282.349-.506.628-.671.28-.168.615-.253 1.005-.253.488 0 .887.153 1.197.459.31.303.465.775.465 1.416V38h-.838v-3.65c0-.403-.11-.69-.33-.864a1.222 1.222 0 0 0-.778-.259c-.383 0-.68.116-.891.348-.211.23-.316.521-.316.874V38h-.852v-3.736c0-.31-.101-.56-.302-.75-.202-.19-.461-.287-.778-.287a1.15 1.15 0 0 0-.611.174 1.313 1.313 0 0 0-.454.483c-.114.204-.171.44-.171.707V38h-.838Zm8.492 2.045v-7.5h.809v.867h.1c.061-.095.146-.215.255-.362.112-.15.27-.282.476-.398.209-.118.49-.178.845-.178.46 0 .864.115 1.215.345.35.23.624.555.82.976.197.422.295.919.295 1.492 0 .578-.098 1.078-.295 1.502a2.323 2.323 0 0 1-.817.98c-.348.23-.749.345-1.203.345-.351 0-.631-.058-.842-.174a1.563 1.563 0 0 1-.487-.402 5.353 5.353 0 0 1-.262-.376h-.071v2.883h-.838Zm.823-4.772c0 .412.061.775.182 1.09.12.312.297.557.529.735.232.175.516.263.852.263.35 0 .643-.092.877-.277.237-.187.414-.438.533-.753.12-.317.181-.67.181-1.058 0-.384-.059-.73-.178-1.037a1.6 1.6 0 0 0-.529-.735c-.234-.183-.529-.274-.884-.274-.341 0-.627.087-.859.26-.232.17-.408.41-.526.717a2.956 2.956 0 0 0-.178 1.069Zm6.675 2.855a2.22 2.22 0 0 1-.941-.196 1.62 1.62 0 0 1-.671-.571c-.166-.251-.248-.554-.248-.91 0-.312.061-.565.184-.76.123-.196.288-.35.494-.46.206-.112.433-.195.682-.25.251-.056.503-.101.756-.134.332-.043.6-.075.806-.096.209-.024.36-.063.455-.117.097-.055.145-.15.145-.285v-.028c0-.35-.096-.623-.287-.817-.19-.194-.477-.29-.863-.29-.4 0-.714.087-.941.262a1.555 1.555 0 0 0-.48.56l-.795-.283c.142-.332.331-.59.568-.774.239-.187.5-.318.781-.39.284-.077.564-.115.838-.115.176 0 .377.022.604.064.23.04.451.125.664.253.216.127.394.32.536.578.142.258.213.604.213 1.037V38h-.838v-.739h-.042a1.493 1.493 0 0 1-.284.38c-.133.135-.309.25-.529.345a2.043 2.043 0 0 1-.807.142Zm.128-.753c.332 0 .611-.065.838-.195a1.329 1.329 0 0 0 .696-1.154v-.768c-.035.043-.113.082-.234.118a3.948 3.948 0 0 1-.412.089 18.34 18.34 0 0 1-.803.106 3.201 3.201 0 0 0-.61.139 1.055 1.055 0 0 0-.455.28c-.114.123-.17.291-.17.504 0 .291.107.512.323.66.218.148.493.221.827.221Zm4.54-2.656V38h-.838v-5.455h.81v.853h.071c.128-.277.322-.5.582-.668.261-.17.597-.256 1.009-.256.369 0 .692.076.969.228.277.149.493.376.646.681.154.304.231.687.231 1.151V38h-.838v-3.41c0-.428-.111-.761-.334-1-.222-.242-.528-.363-.916-.363-.267 0-.506.058-.717.174a1.25 1.25 0 0 0-.494.508c-.12.223-.181.492-.181.81ZM128.608 38v-5.455h.838V38h-.838Zm.426-6.364a.597.597 0 0 1-.423-.166.536.536 0 0 1-.174-.402c0-.156.058-.29.174-.401a.597.597 0 0 1 .423-.167c.163 0 .303.056.419.167a.532.532 0 0 1 .177.401c0 .156-.059.29-.177.401a.584.584 0 0 1-.419.167Zm4.034 6.478c-.526 0-.979-.116-1.36-.348a2.337 2.337 0 0 1-.878-.98c-.203-.422-.305-.912-.305-1.47 0-.56.102-1.052.305-1.478.206-.428.493-.762.86-1.001.369-.242.8-.363 1.292-.363.285 0 .565.048.842.143.277.094.529.248.756.461.228.21.409.49.544.838.135.348.202.777.202 1.286v.355h-4.204v-.725h3.352a1.79 1.79 0 0 0-.185-.824 1.385 1.385 0 0 0-.518-.571 1.455 1.455 0 0 0-.789-.21c-.333 0-.622.083-.866.249a1.638 1.638 0 0 0-.558.64 1.88 1.88 0 0 0-.195.844v.483c0 .412.071.761.213 1.048.145.284.345.5.6.65.256.146.553.22.892.22.22 0 .419-.031.596-.092.18-.064.335-.16.465-.285.131-.128.231-.286.302-.476l.81.228a1.796 1.796 0 0 1-.43.724c-.201.206-.45.367-.745.483-.296.114-.629.17-.998.17Zm7.197-4.347-.753.213a1.4 1.4 0 0 0-.21-.366c-.09-.12-.213-.22-.369-.298a1.338 1.338 0 0 0-.6-.117c-.334 0-.612.077-.835.23-.22.152-.33.345-.33.58 0 .208.076.372.227.493.152.12.389.221.711.302l.809.199c.488.118.851.3 1.09.543.24.242.359.553.359.934 0 .313-.09.592-.27.838-.177.246-.426.44-.746.583a2.722 2.722 0 0 1-1.115.213c-.556 0-1.016-.121-1.381-.363-.365-.241-.595-.594-.692-1.058l.795-.199c.076.294.219.514.43.66.213.148.491.221.834.221.391 0 .701-.083.931-.249.232-.168.348-.369.348-.603a.636.636 0 0 0-.199-.476c-.133-.13-.336-.227-.611-.291l-.909-.213c-.5-.119-.867-.302-1.101-.55-.232-.252-.348-.565-.348-.942 0-.308.086-.58.259-.817.175-.236.413-.422.714-.557a2.506 2.506 0 0 1 1.03-.203c.54 0 .963.119 1.271.356.31.236.53.549.661.937ZM144.152 38v-7.273h.838v2.685h.071c.061-.095.147-.215.256-.362.111-.15.269-.282.475-.398.209-.118.49-.178.846-.178.459 0 .864.115 1.214.345.35.23.624.555.82.976.197.422.295.919.295 1.492 0 .578-.098 1.078-.295 1.502a2.32 2.32 0 0 1-.816.98c-.348.23-.75.345-1.204.345-.351 0-.631-.058-.842-.174a1.546 1.546 0 0 1-.486-.402 5.094 5.094 0 0 1-.263-.376h-.1V38h-.809Zm.824-2.727c0 .412.06.775.181 1.09.12.312.297.557.529.735.232.175.516.263.852.263.351 0 .643-.092.877-.277a1.69 1.69 0 0 0 .533-.753 2.95 2.95 0 0 0 .181-1.058c0-.384-.059-.73-.178-1.037a1.6 1.6 0 0 0-.529-.735c-.234-.183-.529-.274-.884-.274-.341 0-.627.087-.859.26-.232.17-.407.41-.526.717a2.957 2.957 0 0 0-.177 1.069Zm8.511.497v-3.225h.838V38h-.838v-.923h-.057a1.79 1.79 0 0 1-.597.706c-.27.192-.611.288-1.023.288-.34 0-.644-.075-.909-.224a1.57 1.57 0 0 1-.625-.681c-.151-.306-.227-.69-.227-1.155v-3.466h.838v3.41c0 .397.111.715.334.951.225.237.511.355.859.355.209 0 .421-.053.636-.16.218-.106.4-.27.547-.49.149-.22.224-.5.224-.841ZM155.66 38v-5.455h.838V38h-.838Zm.426-6.364a.597.597 0 0 1-.423-.166.536.536 0 0 1-.174-.402c0-.156.058-.29.174-.401a.597.597 0 0 1 .423-.167c.163 0 .303.056.419.167a.532.532 0 0 1 .177.401c0 .156-.059.29-.177.401a.584.584 0 0 1-.419.167Zm2.585-.909V38h-.838v-7.273h.838Zm3.394 7.387c-.454 0-.855-.115-1.203-.345a2.323 2.323 0 0 1-.817-.98c-.197-.424-.295-.924-.295-1.502 0-.573.098-1.07.295-1.492a2.29 2.29 0 0 1 .82-.976c.35-.23.755-.345 1.215-.345.355 0 .635.06.841.178.209.116.367.249.476.398.111.147.198.267.259.362h.071v-2.685h.838V38h-.809v-.838h-.1c-.061.1-.149.225-.262.376-.114.15-.276.283-.487.402-.211.116-.491.174-.842.174Zm.114-.753c.336 0 .62-.088.852-.263a1.64 1.64 0 0 0 .529-.735c.121-.315.182-.678.182-1.09 0-.408-.06-.764-.178-1.07a1.554 1.554 0 0 0-.526-.717c-.232-.172-.518-.259-.859-.259-.355 0-.651.091-.888.274-.234.18-.411.425-.529.735a2.922 2.922 0 0 0-.174 1.037c0 .388.059.74.178 1.058.12.315.298.566.532.753.237.184.531.277.881.277Zm8.822-4.816v.71h-2.826v-.71h2.826Zm-2.003-1.306h.839v5.198c0 .237.034.415.103.533a.535.535 0 0 0 .269.235c.112.037.229.056.352.056.092 0 .168-.004.227-.014l.142-.028.171.753a1.707 1.707 0 0 1-.238.063 1.752 1.752 0 0 1-.387.036c-.237 0-.469-.05-.696-.153a1.38 1.38 0 0 1-.561-.465c-.147-.208-.221-.471-.221-.788v-5.426Zm4.019 3.48V38h-.838v-7.273h.838v2.67h.071c.128-.281.32-.505.576-.67.258-.168.601-.253 1.029-.253.372 0 .698.075.977.224.279.147.496.373.65.678.156.303.234.69.234 1.158V38h-.838v-3.41c0-.432-.112-.767-.337-1.004-.223-.24-.532-.359-.927-.359-.275 0-.521.058-.739.174a1.27 1.27 0 0 0-.511.508 1.652 1.652 0 0 0-.185.81Zm7.157 3.395c-.525 0-.979-.116-1.36-.348a2.335 2.335 0 0 1-.877-.98c-.204-.422-.305-.912-.305-1.47 0-.56.101-1.052.305-1.478.206-.428.493-.762.859-1.001.37-.242.801-.363 1.293-.363.284 0 .565.048.842.143.277.094.529.248.756.461.227.21.408.49.543.838.135.348.203.777.203 1.286v.355h-4.205v-.725h3.353a1.79 1.79 0 0 0-.185-.824 1.394 1.394 0 0 0-.519-.571 1.45 1.45 0 0 0-.788-.21 1.5 1.5 0 0 0-.866.249 1.63 1.63 0 0 0-.558.64 1.88 1.88 0 0 0-.195.844v.483c0 .412.071.761.213 1.048.144.284.344.5.6.65.256.146.553.22.891.22.22 0 .419-.031.597-.092.18-.064.335-.16.465-.285.13-.128.231-.286.302-.476l.81.228a1.807 1.807 0 0 1-.43.724c-.201.206-.45.367-.746.483-.296.114-.628.17-.998.17Zm3.334-.114v-5.455h.838V38h-.838Zm.426-6.364a.597.597 0 0 1-.423-.166.536.536 0 0 1-.174-.402c0-.156.058-.29.174-.401a.597.597 0 0 1 .423-.167c.163 0 .303.056.419.167a.532.532 0 0 1 .177.401c0 .156-.059.29-.177.401a.584.584 0 0 1-.419.167ZM185.681 38v-5.455h.809v.824h.057c.1-.27.28-.489.54-.657.26-.168.554-.252.881-.252a9.118 9.118 0 0 1 .44.014v.853a2.496 2.496 0 0 0-.195-.032 1.937 1.937 0 0 0-.316-.025c-.266 0-.502.055-.711.167a1.26 1.26 0 0 0-.49.454c-.118.192-.177.411-.177.657V38h-.838Zm9.997-4.233-.753.213a1.4 1.4 0 0 0-.21-.366c-.09-.12-.213-.22-.369-.298a1.338 1.338 0 0 0-.6-.117c-.334 0-.612.077-.835.23-.22.152-.33.345-.33.58 0 .208.076.372.227.493.152.12.388.221.71.302l.81.199c.488.118.851.3 1.09.543.239.242.359.553.359.934 0 .313-.09.592-.27.838-.177.246-.426.44-.746.583a2.722 2.722 0 0 1-1.115.213c-.556 0-1.017-.121-1.381-.363-.365-.241-.595-.594-.693-1.058l.796-.199c.076.294.219.514.43.66.213.148.491.221.834.221.391 0 .701-.083.93-.249.233-.168.349-.369.349-.603a.636.636 0 0 0-.199-.476c-.133-.13-.337-.227-.611-.291l-.909-.213c-.5-.119-.867-.302-1.101-.55-.232-.252-.348-.565-.348-.942 0-.308.086-.58.259-.817.175-.236.413-.422.714-.557a2.506 2.506 0 0 1 1.03-.203c.54 0 .963.119 1.271.356.31.236.53.549.661.937Zm3.376 4.347c-.492 0-.924-.118-1.296-.352a2.388 2.388 0 0 1-.866-.984c-.206-.421-.309-.913-.309-1.477 0-.568.103-1.064.309-1.488.208-.424.497-.753.866-.987.372-.234.804-.352 1.296-.352.493 0 .924.118 1.293.352.372.234.661.563.867.987.208.424.312.92.312 1.488 0 .564-.104 1.056-.312 1.477-.206.422-.495.75-.867.984-.369.234-.8.352-1.293.352Zm0-.753c.374 0 .682-.096.924-.288a1.7 1.7 0 0 0 .536-.756c.116-.313.174-.651.174-1.016 0-.364-.058-.704-.174-1.019a1.72 1.72 0 0 0-.536-.763c-.242-.195-.55-.292-.924-.292s-.681.097-.923.292a1.72 1.72 0 0 0-.536.763 2.925 2.925 0 0 0-.174 1.02c0 .364.058.702.174 1.015a1.7 1.7 0 0 0 .536.756c.242.192.549.288.923.288Zm5.98-4.816v.71h-2.94v-.71h2.94ZM202.975 38v-6.207c0-.313.073-.573.22-.782.147-.208.337-.364.572-.468.234-.105.481-.157.742-.157a1.96 1.96 0 0 1 .795.142l-.241.725a4.266 4.266 0 0 0-.178-.053 1.072 1.072 0 0 0-.291-.032c-.277 0-.477.07-.6.21-.121.139-.181.344-.181.613V38h-.838Zm5.406-5.455v.71h-2.827v-.71h2.827Zm-2.003-1.306h.838v5.198c0 .237.035.415.103.533a.533.533 0 0 0 .27.235c.111.037.229.056.352.056.092 0 .168-.004.227-.014l.142-.028.17.753a1.756 1.756 0 0 1-.625.1c-.236-.001-.468-.052-.696-.154a1.38 1.38 0 0 1-.561-.465c-.146-.208-.22-.471-.22-.788v-5.426ZM210.677 38l-1.661-5.455h.88l1.179 4.177h.057l1.165-4.177h.895l1.15 4.162h.057l1.179-4.162h.881L214.797 38h-.824l-1.193-4.19h-.086L211.501 38h-.824Zm8.295.128c-.346 0-.66-.065-.941-.196a1.608 1.608 0 0 1-.671-.571c-.166-.251-.249-.554-.249-.91 0-.312.062-.565.185-.76.123-.196.287-.35.493-.46.206-.112.433-.195.682-.25.251-.056.503-.101.756-.134.332-.043.601-.075.807-.096.208-.024.359-.063.454-.117.097-.055.146-.15.146-.285v-.028c0-.35-.096-.623-.288-.817-.189-.194-.477-.29-.863-.29-.4 0-.714.087-.941.262-.227.175-.387.362-.479.56l-.796-.283c.142-.332.332-.59.568-.774.24-.187.5-.318.782-.39.284-.077.563-.115.838-.115.175 0 .376.022.603.064.23.04.451.125.664.253.216.127.395.32.537.578.142.258.213.604.213 1.037V38h-.838v-.739h-.043a1.47 1.47 0 0 1-.284.38c-.133.135-.309.25-.529.345-.22.095-.489.142-.806.142Zm.128-.753c.331 0 .61-.065.838-.195a1.332 1.332 0 0 0 .696-1.154v-.768c-.036.043-.114.082-.235.118a3.893 3.893 0 0 1-.412.089 17.683 17.683 0 0 1-.802.106 3.194 3.194 0 0 0-.611.139 1.055 1.055 0 0 0-.455.28c-.113.123-.17.291-.17.504 0 .291.108.512.323.66.218.148.494.221.828.221Zm3.701.625v-5.455h.81v.824h.057c.099-.27.279-.489.54-.657.26-.168.554-.252.88-.252a9.12 9.12 0 0 1 .441.014v.853a2.554 2.554 0 0 0-.196-.032 1.92 1.92 0 0 0-.316-.025c-.265 0-.502.055-.71.167a1.229 1.229 0 0 0-.668 1.111V38h-.838Zm5.642.114c-.526 0-.979-.116-1.36-.348a2.335 2.335 0 0 1-.877-.98c-.204-.422-.306-.912-.306-1.47 0-.56.102-1.052.306-1.478a2.41 2.41 0 0 1 .859-1.001c.37-.242.8-.363 1.293-.363.284 0 .564.048.841.143.277.094.53.248.757.461.227.21.408.49.543.838.135.348.203.777.203 1.286v.355h-4.205v-.725h3.352a1.79 1.79 0 0 0-.184-.824 1.394 1.394 0 0 0-.519-.571 1.45 1.45 0 0 0-.788-.21c-.334 0-.623.083-.867.249a1.635 1.635 0 0 0-.557.64 1.88 1.88 0 0 0-.195.844v.483c0 .412.071.761.213 1.048.144.284.344.5.6.65.255.146.553.22.891.22.22 0 .419-.031.597-.092.18-.064.335-.16.465-.285.13-.128.231-.286.302-.476l.809.228a1.794 1.794 0 0 1-.429.724c-.202.206-.45.367-.746.483-.296.114-.629.17-.998.17ZM152.857 13.52h-6.047v1.126h4.883v3.791c-1.205 1-2.805 1.396-4.529 1.396-3.616 0-6.047-2.625-6.047-6.312 0-3.813 2.514-6.375 6.005-6.375 1.787 0 3.345.52 4.654 1.792l.852-.75C151.049 6.582 149.096 6 147.122 6c-4.322 0-7.231 3.104-7.231 7.52 0 4.5 3.034 7.46 7.273 7.46 2.264 0 4.301-.688 5.693-1.918v-5.541Z" fill="#5C6370" style="fill:color(display-p3 .36 .3867 .44);fill-opacity:1"/><path fill-rule="evenodd" clip-rule="evenodd" d="M167.669 13.48c0 4.228 2.951 7.52 7.314 7.52 4.072 0 7.293-3 7.293-7.52 0-4.5-3.221-7.48-7.293-7.48-4.363 0-7.314 3.292-7.314 7.48Zm13.381 0c0 3.77-2.722 6.353-6.067 6.353-3.636 0-6.088-2.854-6.088-6.354 0-3.479 2.452-6.333 6.088-6.333 3.345 0 6.067 2.562 6.067 6.333Z" fill="#5C6370" style="fill:color(display-p3 .36 .3867 .44);fill-opacity:1"/><path d="M190.464 21c-3.283 0-5.548-2.25-5.548-6.063V6.104h1.163v8.73c0 3.062 1.746 5 4.385 5 2.618 0 4.425-1.855 4.425-5v-8.73h1.164v8.834c0 3.77-2.223 6.062-5.589 6.062Z" fill="#5C6370" style="fill:color(display-p3 .36 .3867 .44);fill-opacity:1"/><path fill-rule="evenodd" clip-rule="evenodd" d="M199.276 20.896V6.104h5.007c3.366 0 4.717 1.875 4.717 4.375 0 3.084-2.078 4.438-5.07 4.438h-3.49v5.979h-1.164Zm1.164-7.104h3.449c2.825 0 3.864-1.459 3.864-3.313 0-2.187-1.35-3.27-3.49-3.27h-3.823v6.583ZM166.042 20.896h-1.475l-4.093-5.98h-3.325v5.98h-1.163V6.104h5.028c3.325 0 4.737 1.875 4.737 4.375 0 2.688-1.579 4.063-3.885 4.375l4.176 6.042Zm-8.893-13.688v6.584h3.47c2.826 0 3.886-1.438 3.886-3.313 0-2.187-1.33-3.27-3.532-3.27h-3.824Z" fill="#5C6370" style="fill:color(display-p3 .36 .3867 .44);fill-opacity:1"/><path d="M57.906 9.208v11.688h3.45V9.208h3.906V6.104H54v3.104h3.906ZM82.945 6.104h3.49v14.792h-3.448v-8.167h-.042l-2.992 5.459H77.73l-2.992-5.438h-.042v8.146h-3.449V6.104h3.49l4.094 7.833h.042l4.072-7.833ZM88.626 6.104v14.792h10.057v-3.104h-6.65v-2.688h4.904v-3.062h-4.903V9.208h6.212V6.104h-9.62Z" fill="#000" style="fill:#000;fill-opacity:1"/><path fill-rule="evenodd" clip-rule="evenodd" d="M100.304 20.896V6.104h5.111c4.675 0 7.646 3.042 7.646 7.417 0 4.354-2.805 7.375-7.584 7.375h-5.173Zm3.428-3.104h1.517c2.535 0 4.197-1.875 4.197-4.271 0-2.48-1.683-4.313-3.948-4.313h-1.766v8.584Z" fill="#000" style="fill:#000;fill-opacity:1"/><path d="M114.783 6.104v14.792h3.511V6.104h-3.511Z" fill="#000" style="fill:#000;fill-opacity:1"/><path fill-rule="evenodd" clip-rule="evenodd" d="m129.051 18.25.873 2.646h3.636l-5.444-14.792h-3.324l-5.402 14.792h3.636l.852-2.646h5.173Zm-.955-2.958h-3.262l1.599-4.98h.042l1.621 4.98Z" fill="#000" style="fill:#000;fill-opacity:1"/></svg>